<svg xmlns="http://www.w3.org/2000/svg" viewBox="0 0 512 512">
  <defs>
    <linearGradient id="background" x1="64" y1="42" x2="448" y2="470" gradientUnits="userSpaceOnUse">
      <stop offset="0" stop-color="#071523"/>
      <stop offset="0.55" stop-color="#0a3552"/>
      <stop offset="1" stop-color="#08718a"/>
    </linearGradient>
  </defs>
  <rect x="18" y="18" width="476" height="476" rx="108" fill="url(#background)"/>
  <rect x="80.5" y="154.5" width="351" height="203" rx="99.5" fill="none" stroke="#42e1ef"
        stroke-opacity="0.57" stroke-width="17"/>
  <g fill="#f7fbff">
    <rect x="124" y="112" width="76" height="288" rx="27"/>
    <rect x="312" y="112" width="76" height="288" rx="27"/>
    <rect x="174" y="218" width="164" height="76" rx="27"/>
  </g>
  <path d="M76 304 C159 246 217 329 304 265 C350 231 397 215 440 228" fill="none" stroke="#00cedf"
        stroke-width="39" stroke-linecap="round" stroke-linejoin="round"/>
  <path d="M76 304 C159 246 217 329 304 265 C350 231 397 215 440 228" fill="none" stroke="#8ff8ff"
        stroke-width="10" stroke-linecap="round" stroke-linejoin="round"/>
  <circle cx="399" cy="105" r="36" fill="#f7fbff"/>
  <circle cx="399" cy="105" r="26" fill="#ff4f64"/>
</svg>
